# xmcd CD database file
#
# Track frame offsets:
#	150
#	19437
#	38205
#	57470
#
# Disc length: 1013 seconds
#
# Revision: 1
# Processed by: cddbd v1.5.2PL0 Copyright (c) Steve Scherf et al.
# Submitted via: CDex 1.70beta2
#
DISCID=3303f304
DTITLE=永作博美 - 9：01 PM
DYEAR=1998
DGENRE=JPop
TTITLE0=9：01 PM
TTITLE1=ひらめき
TTITLE2=9：01 PM（オリジナルカラオケ）
TTITLE3=ひらめき（オリジナルカラオケ）
EXTD=YEAR: 1998
EXTT0=
EXTT1=
EXTT2=
EXTT3=
PLAYORDER=
